<svg width="32" height="32" viewBox="0 0 32 32" fill="none" xmlns="http://www.w3.org/2000/svg">
<rect x="32" y="32" width="32" height="32" rx="16" transform="rotate(-180 32 32)" fill="white"/>
<path d="M13.3439 11.7018L18.9874 16.5965C19.2503 16.8246 19.2503 15.1754 18.9874 15.4035L13.3439 20.2982C13.1214 20.4737 13 20.7193 13 21C13 21.5439 13.5259 22 14.153 22C14.4766 22 14.7598 21.8947 14.9621 21.7018L20.6056 16.807C21.1315 16.3684 21.1315 15.6316 20.6056 15.193L14.9621 10.2982C14.7598 10.1053 14.4766 10 14.153 10C13.5259 10 13 10.4561 13 11C13 11.2807 13.1214 11.5263 13.3439 11.7018Z" fill="black"/>
</svg>
