<svg width="32" height="32" viewBox="0 0 32 32" fill="none" xmlns="http://www.w3.org/2000/svg">
<rect width="32" height="32" rx="16" fill="white"/>
<path d="M18.6561 20.2982L13.0126 15.4035C12.7497 15.1754 12.7497 16.8246 13.0126 16.5965L18.6561 11.7018C18.8786 11.5263 19 11.2807 19 11C19 10.4561 18.4741 10 17.847 10C17.5234 10 17.2402 10.1053 17.0379 10.2982L11.3944 15.193C10.8685 15.6316 10.8685 16.3684 11.3944 16.807L17.0379 21.7018C17.2402 21.8947 17.5234 22 17.847 22C18.4741 22 19 21.5439 19 21C19 20.7193 18.8786 20.4737 18.6561 20.2982Z" fill="black"/>
</svg>
