<svg width="32" height="32" viewBox="0 0 28 28" fill="none" xmlns="http://www.w3.org/2000/svg">
<path d="M13.9999 0.666504C6.6399 0.666504 0.666565 6.63984 0.666565 13.9998C0.666565 21.3598 6.6399 27.3332 13.9999 27.3332C21.3599 27.3332 27.3332 21.3598 27.3332 13.9998C27.3332 6.63984 21.3599 0.666504 13.9999 0.666504ZM20.1866 9.73317C19.9866 11.8398 19.1199 16.9598 18.6799 19.3198C18.4932 20.3198 18.1199 20.6532 17.7732 20.6932C16.9999 20.7598 16.4132 20.1865 15.6666 19.6932C14.4932 18.9198 13.8266 18.4398 12.6932 17.6932C11.3732 16.8265 12.2266 16.3465 12.9866 15.5732C13.1866 15.3732 16.5999 12.2665 16.6666 11.9865C16.6758 11.9441 16.6746 11.9001 16.663 11.8582C16.6514 11.8164 16.6297 11.7781 16.5999 11.7465C16.5199 11.6798 16.4132 11.7065 16.3199 11.7198C16.1999 11.7465 14.3332 12.9865 10.6932 15.4398C10.1599 15.7998 9.6799 15.9865 9.25323 15.9732C8.77323 15.9598 7.86656 15.7065 7.18656 15.4798C6.34656 15.2132 5.69323 15.0665 5.74656 14.5998C5.77323 14.3598 6.10656 14.1198 6.73323 13.8665C10.6266 12.1732 13.2132 11.0532 14.5066 10.5198C18.2132 8.97317 18.9732 8.7065 19.4799 8.7065C19.5866 8.7065 19.8399 8.73317 19.9999 8.8665C20.1332 8.97317 20.1732 9.11984 20.1866 9.22651C20.1732 9.30651 20.1999 9.5465 20.1866 9.73317Z" fill="#249C19"/>
</svg>
