<svg width="32" height="32" viewBox="0 0 28 28" fill="none" xmlns="http://www.w3.org/2000/svg">
<path d="M18.0974 0.666504H9.91604C2.44404 0.666504 0.666702 2.44384 0.666702 9.9025V18.0838C0.666702 25.5545 2.4307 27.3332 9.9027 27.3332H18.084C25.5547 27.3332 27.3334 25.5692 27.3334 18.0972V9.91584C27.3334 2.44384 25.5694 0.666504 18.0974 0.666504ZM22.1947 19.6932H20.2494C19.5134 19.6932 19.292 19.0972 17.972 17.7772C16.82 16.6665 16.3334 16.5278 16.0414 16.5278C15.6387 16.5278 15.528 16.6385 15.528 17.1945V18.9438C15.528 19.4172 15.3747 19.6945 14.1387 19.6945C12.9392 19.6139 11.7759 19.2495 10.7448 18.6312C9.71373 18.013 8.84426 17.1586 8.20804 16.1385C6.69759 14.2585 5.64663 12.052 5.1387 9.6945C5.1387 9.4025 5.24937 9.1385 5.80537 9.1385H7.74937C8.24937 9.1385 8.42937 9.36117 8.62537 9.87451C9.56937 12.6532 11.18 15.0692 11.8334 15.0692C12.084 15.0692 12.1934 14.9585 12.1934 14.3332V11.4718C12.1107 10.1665 11.4174 10.0558 11.4174 9.58384C11.4263 9.45934 11.4833 9.34321 11.5764 9.26008C11.6695 9.17694 11.7913 9.13333 11.916 9.1385H14.972C15.3894 9.1385 15.528 9.34651 15.528 9.84651V13.7078C15.528 14.1252 15.708 14.2638 15.8334 14.2638C16.084 14.2638 16.2774 14.1252 16.736 13.6665C17.7212 12.4651 18.5261 11.1266 19.1254 9.69317C19.1866 9.52099 19.3025 9.37358 19.4554 9.27343C19.6083 9.17328 19.7897 9.1259 19.972 9.1385H21.9174C22.5 9.1385 22.624 9.4305 22.5 9.84651C21.7927 11.4311 20.9175 12.9352 19.8894 14.3332C19.68 14.6532 19.596 14.8198 19.8894 15.1945C20.0827 15.4865 20.764 16.0558 21.2227 16.5972C21.8892 17.262 22.4427 18.0313 22.8614 18.8745C23.028 19.4158 22.7494 19.6932 22.1947 19.6932Z" fill="#249C19"/>
</svg>
